Coordinates
version=1
nRows=26
nColumns=24
inDegrees=yes

Units are S.I. units (second, meters, Newtons, ...)
Angles are in degrees.

endheader
time	pelvis_tilt	pelvis_list	pelvis_rotation	pelvis_tx	pelvis_ty	pelvis_tz	hip_flexion_r	hip_adduction_r	hip_rotation_r	knee_angle_r	ankle_angle_r	subtalar_angle_r	mtp_angle_r	hip_flexion_l	hip_adduction_l	hip_rotation_l	knee_angle_l	ankle_angle_l	subtalar_angle_l	mtp_angle_l	lumbar_extension	lumbar_bending	lumbar_rotation
      3.64500000	     -7.86609054	     -1.59826247	      2.00552599	     -0.74074373	     -0.01313144	      0.65741246	      5.21296366	      2.95373537	      9.54319165	    -17.37060542	      9.42078369	     -7.32706308	      6.77472003	     40.29388976	     -1.56458595	     -3.02011939	    -56.41533882	     -6.87162515	     -3.10467431	      7.65258244	      4.28331344	      7.86142494	      0.41416354
      3.65000000	     -7.74802701	     -1.45290375	      1.90027908	     -0.73414490	     -0.01349584	      0.65746127	      4.41303171	      2.77856053	      9.61734978	    -16.89680981	      9.57745523	     -7.29592732	      6.71063410	     40.37082454	     -1.47657317	     -3.09424791	    -54.95963771	     -6.53331980	     -3.33218786	      6.83393489	      4.06899636	      7.66597118	      0.53973267
      3.65500000	     -7.91129968	     -1.43587811	      1.84249294	     -0.72752739	     -0.01435190	      0.65744518	      3.93595706	      2.73046613	      9.68131692	    -16.46119227	      9.74435233	     -7.28926823	      6.70412130	     40.76383952	     -1.45203945	     -2.95916739	    -53.49723260	     -6.23141112	     -3.28903682	      6.66069261	      4.18340001	      7.59385295	      0.52921417
      3.66000000	     -7.74023659	     -1.26536076	      1.75315084	     -0.72088482	     -0.01476046	      0.65743352	      3.07433801	      2.51456564	      9.70024157	    -15.98517659	      9.91928543	     -7.19191826	      6.59382571	     40.69664596	     -1.31835713	     -2.99274827	    -51.91361946	     -5.75077106	     -3.38467861	      5.53033700	      3.90604023	      7.36874759	      0.60906146
      3.66500000	     -7.76165276	     -1.16059133	      1.68542804	     -0.71418333	     -0.01550295	      0.65739050	      2.43453758	      2.36198408	      9.68530373	    -15.54276574	     10.13064946	     -7.06893743	      6.46957392	     40.83571082	     -1.21921087	     -2.92887449	    -50.34712574	     -5.05677819	     -3.23641214	      4.04484700	      3.85933692	      7.20280935	      0.63919826
      3.67000000	     -7.95834901	     -1.16634502	      1.60884307	     -0.70752914	     -0.01653613	      0.65743424	      2.00724051	      2.33749973	      9.72953451	    -15.12977653	     10.25828743	     -7.04665843	      6.46387982	     41.15154603	     -1.23781892	     -2.77473161	    -48.70310961	     -4.77413206	     -3.09873923	      3.94807929	      4.00593307	      7.13849666	      0.63051551
      3.67500000	     -7.88101215	     -1.03046475	      1.52579854	     -0.70082214	     -0.01720852	      0.65748203	      1.25129397	      2.15509013	      9.73675092	    -14.66387844	     10.41052014	     -6.94441914	      6.39960899	     41.07562367	     -1.14107038	     -2.72260244	    -46.93959319	     -4.41807368	     -3.00801482	      3.46566238	      3.83796187	      6.92829904	      0.68314527
      3.68000000	     -7.89753991	     -0.93012796	      1.44134390	     -0.69408036	     -0.01805730	      0.65754638	      0.61159513	      2.00903534	      9.71718043	    -14.22861458	     10.57015884	     -6.81774032	      6.33069470	     41.07788243	     -1.07836833	     -2.63270765	    -45.15564029	     -3.99226990	     -2.81010003	      2.97642271	      3.78148915	      6.74447747	      0.71491601
      3.68500000	     -7.92770376	     -0.83862226	      1.35199252	     -0.68730807	     -0.01896030	      0.65762263	     -0.01115820	      1.87077901	      9.69127163	    -13.79898000	     10.71439883	     -6.68457278	      6.26174639	     41.06192642	     -1.03264192	     -2.54024674	    -43.33626418	     -3.55613545	     -2.56199766	      2.55158445	      3.74154133	      6.56797554	      0.74730005
      3.69000000	     -8.11281349	     -0.81159883	      1.26374980	     -0.68052044	     -0.02009665	      0.65771831	     -0.44432681	      1.80530581	      9.68021752	    -13.41048489	     10.80933822	     -6.61149298	      6.23854332	     41.20247262	     -1.04397853	     -2.37842560	    -41.50563258	     -3.19554312	     -2.23677150	      2.46681581	      3.87778241	      6.44709198	      0.75395604
      3.69500000	     -7.98467432	     -0.66007241	      1.13670269	     -0.67367655	     -0.02085947	      0.65785266	     -1.24230637	      1.59378884	      9.60990203	    -12.97321495	     10.96322554	     -6.34769777	      6.17441283	     40.92741561	     -0.98791764	     -2.37255666	    -39.61201127	     -2.70410608	     -1.90892275	      2.07367289	      3.65898807	      6.20494071	      0.84212857
      3.70000000	     -7.98808486	     -0.53768104	      1.00902265	     -0.66678885	     -0.02180945	      0.65799869	     -1.87386134	      1.41230071	      9.53140591	    -12.58694651	     11.10388206	     -6.06934221	      6.12692735	     40.78316561	     -0.95243994	     -2.31573911	    -37.73948711	     -2.16905927	     -1.47452244	      1.59666794	      3.59174250	      5.98164177	      0.90648797
      3.70500000	     -8.01587303	     -0.43331836	      0.86708085	     -0.65984133	     -0.02284991	      0.65815993	     -2.46823180	      1.24898820	      9.44737962	    -12.22331765	     11.23635537	     -5.79019002	      6.12338646	     40.64923454	     -0.95125353	     -2.28751246	    -35.89129535	     -1.59404599	     -0.97295297	      1.20547968	      3.55982821	      5.77540805	      0.98374083
      3.71000000	     -8.04946276	     -0.32093139	      0.71031595	     -0.65283791	     -0.02393013	      0.65834995	     -3.04350542	      1.07489335	      9.35819789	    -11.88607070	     11.36305121	     -5.48117000	      6.16178715	     40.49968043	     -0.95965548	     -2.29726906	    -34.06617878	     -1.01837782	     -0.41257137	      0.89904483	      3.53962128	      5.55659631	      1.07266367
      3.71500000	     -8.07930011	     -0.19397226	      0.53493341	     -0.64578163	     -0.02503661	      0.65855753	     -3.60576895	      0.88076711	      9.26513073	    -11.58269813	     11.49335442	     -5.12836198	      6.24061396	     40.32532690	     -0.97140085	     -2.35301113	    -32.27816024	     -0.43580023	      0.20558827	      0.64486695	      3.52147177	      5.31892492	      1.18002679
      3.72000000	     -8.11064827	     -0.05425107	      0.33980286	     -0.63867137	     -0.02616966	      0.65879777	     -4.14513498	      0.66984880	      9.17394157	    -11.32066215	     11.62369984	     -4.73069533	      6.35698688	     40.13518516	     -0.98874413	     -2.45670480	    -30.54385634	      0.14381842	      0.87308796	      0.44149717	      3.50888124	      5.06254281	      1.30875956
      3.72500000	     -8.15597529	      0.09420213	      0.12974122	     -0.63146827	     -0.02736157	      0.65905047	     -4.65264666	      0.44612262	      9.08571840	    -11.09665220	     11.75702931	     -4.31117515	      6.49930463	     39.94889108	     -1.01024483	     -2.61684343	    -28.88794059	      0.72998362	      1.56953741	      0.32149033	      3.52471101	      4.79634619	      1.45468591
      3.73000000	     -8.18648309	      0.27497141	     -0.10445405	     -0.62428763	     -0.02852461	      0.65932974	     -5.13510957	      0.18203374	      9.01403771	    -10.94247818	     11.89601569	     -3.82077133	      6.69314488	     39.73115125	     -1.01436408	     -2.80553579	    -27.30312848	      1.25428409	      2.29171141	      0.20978800	      3.51620508	      4.49211951	      1.62198129
      3.73500000	     -8.23933785	      0.45755648	     -0.34926632	     -0.61698700	     -0.02975552	      0.65960149	     -5.57910466	     -0.08834150	      8.95002692	    -10.82342594	     12.03011396	     -3.32168183	      6.90690948	     39.53486286	     -1.02081709	     -3.04444772	    -25.83545128	      1.78345086	      2.99939713	      0.18458762	      3.55280579	      4.18689746	      1.80482916
      3.74000000	     -8.28354482	      0.66638412	     -0.61556257	     -0.60967780	     -0.03097123	      0.65989822	     -5.99156964	     -0.39160114	      8.90340247	    -10.77510451	     12.16786277	     -2.76957900	      7.17447943	     39.32128374	     -1.00927167	     -3.29862390	    -24.47514835	      2.24207012	      3.67533427	      0.21001155	      3.57883833	      3.84942429	      2.00872597
      3.74500000	     -8.34791440	      0.88098790	     -0.88986549	     -0.60226580	     -0.03223050	      0.66017402	     -6.36190764	     -0.70553672	      8.87709783	    -10.77037201	     12.28937845	     -2.21623741	      7.46256996	     39.13046728	     -0.98751015	     -3.56618748	    -23.25459735	      2.67049506	      4.28396605	      0.32481828	      3.64406360	      3.50812959	      2.22369108
      3.75000000	     -8.39804320	      1.11802033	     -1.18262396	     -0.59485075	     -0.03346348	      0.66047118	     -6.70200745	     -1.04773402	      8.85796759	    -10.84167003	     12.40856112	     -1.61388392	      7.82830830	     38.92048025	     -0.94379331	     -3.81463343	    -22.16212612	      3.00456105	      4.79962518	      0.53126734	      3.69188645	      3.13930357	      2.45563821
      3.75500000	     -8.51075890	      1.36334933	     -1.46032033	     -0.58725615	     -0.03476624	      0.66075326	     -6.97805839	     -1.39596929	      8.89333100	    -10.92246494	     12.47652176	     -1.08492619	      8.14315110	     38.78583322	     -0.87825686	     -4.07619783	    -21.23605597	      3.29745719	      5.23465645	      0.78212444	      3.84178004	      2.75879256	      2.66800436
      3.76000000	     -8.53172059	      1.60828725	     -1.78892820	     -0.57969622	     -0.03599279	      0.66098724	     -7.28902043	     -1.76560128	      8.88175571	    -11.09737484	     12.56233993	     -0.39128074	      8.65215684	     38.54866550	     -0.81113826	     -4.27628663	    -20.44756257	      3.51940506	      5.45894468	      1.24750277	      3.88033839	      2.39518936	      2.96613475
      3.76500000	     -8.59556197	      1.87057191	     -2.10785870	     -0.57207290	     -0.03725169	      0.66124078	     -7.52175286	     -2.14794315	      8.89932568	    -11.33051657	     12.59917339	      0.24434453	      9.24836793	     38.36447784	     -0.71777020	     -4.45576046	    -19.80695127	      3.60002605	      5.58581292	      1.88667068	      3.97712640	      2.00261441	      3.23651812
      3.77000000	     -8.65151624	      2.15532361	     -2.31496559	     -0.56426227	     -0.03852348	      0.66138571	     -7.77993647	     -2.54878126	      8.75932550	    -11.54695604	     12.51228221	      0.83320689	     10.24249220	     38.18001745	     -0.53259679	     -4.59849933	    -19.28663011	      3.37993770	      5.60799013	      3.29711992	      4.10015919	      1.56416786	      3.35886563
